<svg width="143" height="30" viewBox="0 0 143 30" fill="none" xmlns="http://www.w3.org/2000/svg">
<rect width="7.49999" height="29.9999" fill="#A2C7E0"/>
<rect x="135.074" y="15" width="7.49999" height="28.125" transform="rotate(90 135.074 15)" fill="#A2C7E0"/>
<rect x="135.074" width="7.49999" height="29.9999" fill="#A2C7E0"/>
<path fill-rule="evenodd" clip-rule="evenodd" d="M82.4999 7.49999C94.9263 7.49999 105 17.5736 105 29.9999H112.5C112.5 13.4314 99.0685 0 82.4999 0C65.9314 0 52.5 13.4314 52.5 29.9999H60C60 17.5736 70.0736 7.49999 82.4999 7.49999Z" fill="#A2C7E0"/>
<path fill-rule="evenodd" clip-rule="evenodd" d="M29.9999 7.49999C42.4263 7.49999 52.4999 17.5736 52.4999 29.9999H59.9999C59.9999 13.4314 46.5685 0 29.9999 0C13.4314 0 0 13.4314 0 29.9999H7.49999C7.49999 17.5736 17.5736 7.49999 29.9999 7.49999Z" fill="#A2C7E0"/>
<path fill-rule="evenodd" clip-rule="evenodd" d="M82.5 22.5C86.6421 22.5 90 25.8578 90 30H97.4999C97.4999 21.7157 90.7842 15 82.5 15C74.2157 15 67.5 21.7157 67.5 30H75C75 25.8578 78.3578 22.5 82.5 22.5Z" fill="#A2C7E0"/>
</svg>
