<?xml version="1.0" encoding="UTF-8" standalone="no"?>
<svg
   width="20"
   height="20"
   viewBox="0 0 20 20"
   fill="none"
   version="1.1"
   id="svg4"
   sodipodi:docname="cen-invite.svg"
   inkscape:version="1.3.2 (091e20e, 2023-11-25, custom)"
   xmlns:inkscape="http://www.inkscape.org/namespaces/inkscape"
   xmlns:sodipodi="http://sodipodi.sourceforge.net/DTD/sodipodi-0.dtd"
   xmlns="http://www.w3.org/2000/svg"
   xmlns:svg="http://www.w3.org/2000/svg">
  <defs
     id="defs4" />
  <sodipodi:namedview
     id="namedview4"
     pagecolor="#ffffff"
     bordercolor="#000000"
     borderopacity="0.25"
     inkscape:showpageshadow="2"
     inkscape:pageopacity="0.0"
     inkscape:pagecheckerboard="0"
     inkscape:deskcolor="#d1d1d1"
     inkscape:zoom="48.875"
     inkscape:cx="12"
     inkscape:cy="12"
     inkscape:window-width="2560"
     inkscape:window-height="1369"
     inkscape:window-x="-8"
     inkscape:window-y="-8"
     inkscape:window-maximized="1"
     inkscape:current-layer="svg4" />
  <path
     fill-rule="evenodd"
     clip-rule="evenodd"
     d="m 7.8778871,13.344336 c -3.8423939,0 -7.12402225,0.587249 -7.12402225,2.940287 0,2.353038 3.26163665,2.961512 7.12402225,2.961512 3.8433939,0 7.1240219,-0.588259 7.1240219,-2.940286 0,-2.352028 -3.260637,-2.961513 -7.1240219,-2.961513 z"
     stroke="#a2c7e0"
     stroke-width="1.50773"
     stroke-linecap="round"
     stroke-linejoin="round"
     id="path1" />
  <path
     fill-rule="evenodd"
     clip-rule="evenodd"
     d="m 7.8765076,9.9881236 c 2.5219264,0 4.5660714,-2.0669942 4.5660714,-4.6171294 0,-2.5501351 -2.044145,-4.61712935 -4.5660714,-4.61712935 -2.5209462,0 -4.5650918,2.06699425 -4.5650918,4.61712935 -0.009,2.5410384 2.0201556,4.6080326 4.5341048,4.6171294 z"
     stroke="#a2c7e0"
     stroke-width="1.50773"
     stroke-linecap="round"
     stroke-linejoin="round"
     id="path2" />
  <path
     d="m 17.20009,6.736959 v 4.053098"
     stroke="#a2c7e0"
     stroke-width="1.50773"
     stroke-linecap="round"
     stroke-linejoin="round"
     id="path3" />
  <path
     d="M 19.246335,8.7633916 H 15.158044"
     stroke="#a2c7e0"
     stroke-width="1.50773"
     stroke-linecap="round"
     stroke-linejoin="round"
     id="path4" />
</svg>
