<?xml version="1.0" encoding="UTF-8" standalone="no"?>
<svg
   width="14"
   height="13"
   viewBox="0 0 14 13"
   fill="none"
   version="1.1"
   id="svg20"
   sodipodi:docname="cen-quick-actions.svg"
   inkscape:version="1.3.2 (091e20e, 2023-11-25, custom)"
   xmlns:inkscape="http://www.inkscape.org/namespaces/inkscape"
   xmlns:sodipodi="http://sodipodi.sourceforge.net/DTD/sodipodi-0.dtd"
   xmlns="http://www.w3.org/2000/svg"
   xmlns:svg="http://www.w3.org/2000/svg">
  <defs
     id="defs20" />
  <sodipodi:namedview
     id="namedview20"
     pagecolor="#ffffff"
     bordercolor="#000000"
     borderopacity="0.25"
     inkscape:showpageshadow="2"
     inkscape:pageopacity="0.0"
     inkscape:pagecheckerboard="0"
     inkscape:deskcolor="#d1d1d1"
     inkscape:zoom="29.325"
     inkscape:cx="9.3606138"
     inkscape:cy="10.042626"
     inkscape:window-width="2560"
     inkscape:window-height="1369"
     inkscape:window-x="-8"
     inkscape:window-y="-8"
     inkscape:window-maximized="1"
     inkscape:current-layer="svg20" />
  <path
     d="M 5.6968796,10.405589 H 0.77603094"
     stroke="#fafafa"
     stroke-width="1.50552"
     stroke-linecap="round"
     stroke-linejoin="round"
     id="path1" />
  <path
     d="M 5.6968796,10.405589 H 0.77603094"
     stroke="#000000"
     stroke-opacity="0.2"
     stroke-width="1.50552"
     stroke-linecap="round"
     stroke-linejoin="round"
     id="path2" />
  <path
     d="M 5.6968796,10.405589 H 0.77603094"
     stroke="#000000"
     stroke-opacity="0.2"
     stroke-width="1.50552"
     stroke-linecap="round"
     stroke-linejoin="round"
     id="path3" />
  <path
     d="M 5.6968796,10.405589 H 0.77603094"
     stroke="#000000"
     stroke-opacity="0.2"
     stroke-width="1.50552"
     stroke-linecap="round"
     stroke-linejoin="round"
     id="path4" />
  <path
     d="M 5.6968796,10.405589 H 0.77603094"
     stroke="#000000"
     stroke-opacity="0.2"
     stroke-width="1.50552"
     stroke-linecap="round"
     stroke-linejoin="round"
     id="path5" />
  <path
     d="M 7.8923125,2.6686493 H 12.813191"
     stroke="#fafafa"
     stroke-width="1.50552"
     stroke-linecap="round"
     stroke-linejoin="round"
     id="path6" />
  <path
     d="M 7.8923125,2.6686493 H 12.813191"
     stroke="#000000"
     stroke-opacity="0.2"
     stroke-width="1.50552"
     stroke-linecap="round"
     stroke-linejoin="round"
     id="path7" />
  <path
     d="M 7.8923125,2.6686493 H 12.813191"
     stroke="#000000"
     stroke-opacity="0.2"
     stroke-width="1.50552"
     stroke-linecap="round"
     stroke-linejoin="round"
     id="path8" />
  <path
     d="M 7.8923125,2.6686493 H 12.813191"
     stroke="#000000"
     stroke-opacity="0.2"
     stroke-width="1.50552"
     stroke-linecap="round"
     stroke-linejoin="round"
     id="path9" />
  <path
     d="M 7.8923125,2.6686493 H 12.813191"
     stroke="#000000"
     stroke-opacity="0.2"
     stroke-width="1.50552"
     stroke-linecap="round"
     stroke-linejoin="round"
     id="path10" />
  <path
     fill-rule="evenodd"
     clip-rule="evenodd"
     d="m 4.4439846,2.625586 c 0,-1.0342186 -0.8264209,-1.87282613 -1.8456124,-1.87282613 -1.0191915,0 -1.84561233,0.83860753 -1.84561233,1.87282613 0,1.0342187 0.82642083,1.8728261 1.84561233,1.8728261 1.0191915,0 1.8456124,-0.8386074 1.8456124,-1.8728261 z"
     stroke="#fafafa"
     stroke-width="1.50552"
     stroke-linecap="round"
     stroke-linejoin="round"
     id="path11" />
  <path
     fill-rule="evenodd"
     clip-rule="evenodd"
     d="m 4.4439846,2.625586 c 0,-1.0342186 -0.8264209,-1.87282613 -1.8456124,-1.87282613 -1.0191915,0 -1.84561233,0.83860753 -1.84561233,1.87282613 0,1.0342187 0.82642083,1.8728261 1.84561233,1.8728261 1.0191915,0 1.8456124,-0.8386074 1.8456124,-1.8728261 z"
     stroke="#000000"
     stroke-opacity="0.2"
     stroke-width="1.50552"
     stroke-linecap="round"
     stroke-linejoin="round"
     id="path12" />
  <path
     fill-rule="evenodd"
     clip-rule="evenodd"
     d="m 4.4439846,2.625586 c 0,-1.0342186 -0.8264209,-1.87282613 -1.8456124,-1.87282613 -1.0191915,0 -1.84561233,0.83860753 -1.84561233,1.87282613 0,1.0342187 0.82642083,1.8728261 1.84561233,1.8728261 1.0191915,0 1.8456124,-0.8386074 1.8456124,-1.8728261 z"
     stroke="#000000"
     stroke-opacity="0.2"
     stroke-width="1.50552"
     stroke-linecap="round"
     stroke-linejoin="round"
     id="path13" />
  <path
     fill-rule="evenodd"
     clip-rule="evenodd"
     d="m 4.4439846,2.625586 c 0,-1.0342186 -0.8264209,-1.87282613 -1.8456124,-1.87282613 -1.0191915,0 -1.84561233,0.83860753 -1.84561233,1.87282613 0,1.0342187 0.82642083,1.8728261 1.84561233,1.8728261 1.0191915,0 1.8456124,-0.8386074 1.8456124,-1.8728261 z"
     stroke="#000000"
     stroke-opacity="0.2"
     stroke-width="1.50552"
     stroke-linecap="round"
     stroke-linejoin="round"
     id="path14" />
  <path
     fill-rule="evenodd"
     clip-rule="evenodd"
     d="m 4.4439846,2.625586 c 0,-1.0342186 -0.8264209,-1.87282613 -1.8456124,-1.87282613 -1.0191915,0 -1.84561233,0.83860753 -1.84561233,1.87282613 0,1.0342187 0.82642083,1.8728261 1.84561233,1.8728261 1.0191915,0 1.8456124,-0.8386074 1.8456124,-1.8728261 z"
     stroke="#000000"
     stroke-opacity="0.2"
     stroke-width="1.50552"
     stroke-linecap="round"
     stroke-linejoin="round"
     id="path15" />
  <path
     fill-rule="evenodd"
     clip-rule="evenodd"
     d="m 13.24724,10.374438 c 0,-1.0341679 -0.825805,-1.8728058 -1.844907,-1.8728058 -1.019897,0 -1.8462977,0.8386379 -1.8462977,1.8728058 0,1.03427 0.8264007,1.872805 1.8462977,1.872805 1.019102,0 1.844907,-0.838535 1.844907,-1.872805 z"
     stroke="#fafafa"
     stroke-width="1.50552"
     stroke-linecap="round"
     stroke-linejoin="round"
     id="path16" />
  <path
     fill-rule="evenodd"
     clip-rule="evenodd"
     d="m 13.24724,10.374438 c 0,-1.0341679 -0.825805,-1.8728058 -1.844907,-1.8728058 -1.019897,0 -1.8462977,0.8386379 -1.8462977,1.8728058 0,1.03427 0.8264007,1.872805 1.8462977,1.872805 1.019102,0 1.844907,-0.838535 1.844907,-1.872805 z"
     stroke="#000000"
     stroke-opacity="0.2"
     stroke-width="1.50552"
     stroke-linecap="round"
     stroke-linejoin="round"
     id="path17" />
  <path
     fill-rule="evenodd"
     clip-rule="evenodd"
     d="m 13.24724,10.374438 c 0,-1.0341679 -0.825805,-1.8728058 -1.844907,-1.8728058 -1.019897,0 -1.8462977,0.8386379 -1.8462977,1.8728058 0,1.03427 0.8264007,1.872805 1.8462977,1.872805 1.019102,0 1.844907,-0.838535 1.844907,-1.872805 z"
     stroke="#000000"
     stroke-opacity="0.2"
     stroke-width="1.50552"
     stroke-linecap="round"
     stroke-linejoin="round"
     id="path18" />
  <path
     fill-rule="evenodd"
     clip-rule="evenodd"
     d="m 13.24724,10.374438 c 0,-1.0341679 -0.825805,-1.8728058 -1.844907,-1.8728058 -1.019897,0 -1.8462977,0.8386379 -1.8462977,1.8728058 0,1.03427 0.8264007,1.872805 1.8462977,1.872805 1.019102,0 1.844907,-0.838535 1.844907,-1.872805 z"
     stroke="#000000"
     stroke-opacity="0.2"
     stroke-width="1.50552"
     stroke-linecap="round"
     stroke-linejoin="round"
     id="path19" />
  <path
     fill-rule="evenodd"
     clip-rule="evenodd"
     d="m 13.24724,10.374438 c 0,-1.0341679 -0.825805,-1.8728058 -1.844907,-1.8728058 -1.019897,0 -1.8462977,0.8386379 -1.8462977,1.8728058 0,1.03427 0.8264007,1.872805 1.8462977,1.872805 1.019102,0 1.844907,-0.838535 1.844907,-1.872805 z"
     stroke="#000000"
     stroke-opacity="0.2"
     stroke-width="1.50552"
     stroke-linecap="round"
     stroke-linejoin="round"
     id="path20" />
</svg>
