<?xml version="1.0" encoding="UTF-8" standalone="no"?>
<svg
   width="16"
   height="17"
   viewBox="0 0 16 17"
   fill="none"
   version="1.1"
   id="svg15"
   sodipodi:docname="cen-bin.svg"
   inkscape:version="1.3.2 (091e20ef0f, 2023-11-25)"
   xmlns:inkscape="http://www.inkscape.org/namespaces/inkscape"
   xmlns:sodipodi="http://sodipodi.sourceforge.net/DTD/sodipodi-0.dtd"
   xmlns="http://www.w3.org/2000/svg"
   xmlns:svg="http://www.w3.org/2000/svg">
  <defs
     id="defs15" />
  <sodipodi:namedview
     id="namedview15"
     pagecolor="#ffffff"
     bordercolor="#000000"
     borderopacity="0.25"
     inkscape:showpageshadow="2"
     inkscape:pageopacity="0.0"
     inkscape:pagecheckerboard="0"
     inkscape:deskcolor="#d1d1d1"
     inkscape:zoom="45.588235"
     inkscape:cx="8.0064516"
     inkscape:cy="8.5"
     inkscape:window-width="1920"
     inkscape:window-height="1003"
     inkscape:window-x="0"
     inkscape:window-y="0"
     inkscape:window-maximized="1"
     inkscape:current-layer="svg15" />
  <path
     d="m 13.143807,6.0165062 c 0,0 -0.432035,5.2766848 -0.682697,7.4994298 -0.119364,1.061575 -0.785473,1.683641 -1.876434,1.703262 -2.076105,0.03685 -4.154617,0.03914 -6.2299528,-0.0039 C 3.3051241,15.1941 2.6502133,14.564266 2.5332372,13.521414 2.2809858,11.279148 1.8512774,6.0165062 1.8512774,6.0165062"
     stroke="#fafafa"
     stroke-width="1.50558"
     stroke-linecap="round"
     stroke-linejoin="round"
     id="path1" />
  <path
     d="m 13.143807,6.0165062 c 0,0 -0.432035,5.2766848 -0.682697,7.4994298 -0.119364,1.061575 -0.785473,1.683641 -1.876434,1.703262 -2.076105,0.03685 -4.154617,0.03914 -6.2299528,-0.0039 C 3.3051241,15.1941 2.6502133,14.564266 2.5332372,13.521414 2.2809858,11.279148 1.8512774,6.0165062 1.8512774,6.0165062"
     stroke="#000000"
     stroke-opacity="0.2"
     stroke-width="1.50558"
     stroke-linecap="round"
     stroke-linejoin="round"
     id="path2" />
  <path
     d="m 13.143807,6.0165062 c 0,0 -0.432035,5.2766848 -0.682697,7.4994298 -0.119364,1.061575 -0.785473,1.683641 -1.876434,1.703262 -2.076105,0.03685 -4.154617,0.03914 -6.2299528,-0.0039 C 3.3051241,15.1941 2.6502133,14.564266 2.5332372,13.521414 2.2809858,11.279148 1.8512774,6.0165062 1.8512774,6.0165062"
     stroke="#000000"
     stroke-opacity="0.2"
     stroke-width="1.50558"
     stroke-linecap="round"
     stroke-linejoin="round"
     id="path3" />
  <path
     d="m 13.143807,6.0165062 c 0,0 -0.432035,5.2766848 -0.682697,7.4994298 -0.119364,1.061575 -0.785473,1.683641 -1.876434,1.703262 -2.076105,0.03685 -4.154617,0.03914 -6.2299528,-0.0039 C 3.3051241,15.1941 2.6502133,14.564266 2.5332372,13.521414 2.2809858,11.279148 1.8512774,6.0165062 1.8512774,6.0165062"
     stroke="#000000"
     stroke-opacity="0.2"
     stroke-width="1.50558"
     stroke-linecap="round"
     stroke-linejoin="round"
     id="path4" />
  <path
     d="m 13.143807,6.0165062 c 0,0 -0.432035,5.2766848 -0.682697,7.4994298 -0.119364,1.061575 -0.785473,1.683641 -1.876434,1.703262 -2.076105,0.03685 -4.154617,0.03914 -6.2299528,-0.0039 C 3.3051241,15.1941 2.6502133,14.564266 2.5332372,13.521414 2.2809858,11.279148 1.8512774,6.0165062 1.8512774,6.0165062"
     stroke="#000000"
     stroke-opacity="0.2"
     stroke-width="1.50558"
     stroke-linecap="round"
     stroke-linejoin="round"
     id="path5" />
  <path
     d="M 14.247211,3.4865524 H 0.75278878"
     stroke="#fafafa"
     stroke-width="1.50558"
     stroke-linecap="round"
     stroke-linejoin="round"
     id="path6" />
  <path
     d="M 14.247211,3.4865524 H 0.75278878"
     stroke="#000000"
     stroke-opacity="0.2"
     stroke-width="1.50558"
     stroke-linecap="round"
     stroke-linejoin="round"
     id="path7" />
  <path
     d="M 14.247211,3.4865524 H 0.75278878"
     stroke="#000000"
     stroke-opacity="0.2"
     stroke-width="1.50558"
     stroke-linecap="round"
     stroke-linejoin="round"
     id="path8" />
  <path
     d="M 14.247211,3.4865524 H 0.75278878"
     stroke="#000000"
     stroke-opacity="0.2"
     stroke-width="1.50558"
     stroke-linecap="round"
     stroke-linejoin="round"
     id="path9" />
  <path
     d="M 14.247211,3.4865524 H 0.75278878"
     stroke="#000000"
     stroke-opacity="0.2"
     stroke-width="1.50558"
     stroke-linecap="round"
     stroke-linejoin="round"
     id="path10" />
  <path
     d="m 11.64701,3.4863332 c -0.624736,0 -1.162681,-0.4348286 -1.28518,-1.0373143 L 10.168421,1.49631 C 10.049057,1.0567805 9.6448503,0.75278878 9.1841074,0.75278878 H 5.815661 c -0.4607429,0 -0.8649804,0.30399172 -0.9843438,0.74352122 L 4.6379484,2.4490189 C 4.5153986,3.0515046 3.9774639,3.4863332 3.3527987,3.4863332"
     stroke="#fafafa"
     stroke-width="1.50558"
     stroke-linecap="round"
     stroke-linejoin="round"
     id="path11" />
  <path
     d="m 11.64701,3.4863332 c -0.624736,0 -1.162681,-0.4348286 -1.28518,-1.0373143 L 10.168421,1.49631 C 10.049057,1.0567805 9.6448503,0.75278878 9.1841074,0.75278878 H 5.815661 c -0.4607429,0 -0.8649804,0.30399172 -0.9843438,0.74352122 L 4.6379484,2.4490189 C 4.5153986,3.0515046 3.9774639,3.4863332 3.3527987,3.4863332"
     stroke="#000000"
     stroke-opacity="0.2"
     stroke-width="1.50558"
     stroke-linecap="round"
     stroke-linejoin="round"
     id="path12" />
  <path
     d="m 11.64701,3.4863332 c -0.624736,0 -1.162681,-0.4348286 -1.28518,-1.0373143 L 10.168421,1.49631 C 10.049057,1.0567805 9.6448503,0.75278878 9.1841074,0.75278878 H 5.815661 c -0.4607429,0 -0.8649804,0.30399172 -0.9843438,0.74352122 L 4.6379484,2.4490189 C 4.5153986,3.0515046 3.9774639,3.4863332 3.3527987,3.4863332"
     stroke="#000000"
     stroke-opacity="0.2"
     stroke-width="1.50558"
     stroke-linecap="round"
     stroke-linejoin="round"
     id="path13" />
  <path
     d="m 11.64701,3.4863332 c -0.624736,0 -1.162681,-0.4348286 -1.28518,-1.0373143 L 10.168421,1.49631 C 10.049057,1.0567805 9.6448503,0.75278878 9.1841074,0.75278878 H 5.815661 c -0.4607429,0 -0.8649804,0.30399172 -0.9843438,0.74352122 L 4.6379484,2.4490189 C 4.5153986,3.0515046 3.9774639,3.4863332 3.3527987,3.4863332"
     stroke="#000000"
     stroke-opacity="0.2"
     stroke-width="1.50558"
     stroke-linecap="round"
     stroke-linejoin="round"
     id="path14" />
  <path
     d="m 11.64701,3.4863332 c -0.624736,0 -1.162681,-0.4348286 -1.28518,-1.0373143 L 10.168421,1.49631 C 10.049057,1.0567805 9.6448503,0.75278878 9.1841074,0.75278878 H 5.815661 c -0.4607429,0 -0.8649804,0.30399172 -0.9843438,0.74352122 L 4.6379484,2.4490189 C 4.5153986,3.0515046 3.9774639,3.4863332 3.3527987,3.4863332"
     stroke="#000000"
     stroke-opacity="0.2"
     stroke-width="1.50558"
     stroke-linecap="round"
     stroke-linejoin="round"
     id="path15" />
</svg>
