<?xml version="1.0" encoding="UTF-8" standalone="no"?>
<svg
   width="40"
   height="40"
   viewBox="0 0 40 40"
   fill="none"
   version="1.1"
   id="svg1"
   sodipodi:docname="vk.svg"
   inkscape:version="1.3.2 (091e20ef0f, 2023-11-25)"
   xmlns:inkscape="http://www.inkscape.org/namespaces/inkscape"
   xmlns:sodipodi="http://sodipodi.sourceforge.net/DTD/sodipodi-0.dtd"
   xmlns="http://www.w3.org/2000/svg"
   xmlns:svg="http://www.w3.org/2000/svg">
  <defs
     id="defs1" />
  <sodipodi:namedview
     id="namedview1"
     pagecolor="#ffffff"
     bordercolor="#000000"
     borderopacity="0.25"
     inkscape:showpageshadow="2"
     inkscape:pageopacity="0.0"
     inkscape:pagecheckerboard="0"
     inkscape:deskcolor="#d1d1d1"
     inkscape:zoom="12.284091"
     inkscape:cx="10.257169"
     inkscape:cy="14.856614"
     inkscape:window-width="1920"
     inkscape:window-height="1003"
     inkscape:window-x="0"
     inkscape:window-y="0"
     inkscape:window-maximized="1"
     inkscape:current-layer="svg1" />
  <path
     d="M 20.9825,27 C 13.46596,27 9.178638,21.74474 9,13 h 3.76515 c 0.12367,6.41842 2.89944,9.13714 5.09806,9.6977 V 13 h 3.54529 v 5.53553 C 23.5796,18.2973 25.8607,15.77477 26.6302,13 h 3.5453 c -0.29,1.43908 -0.868,2.80165 -1.6979,4.0025 -0.8299,1.20085 -1.8939,2.21413 -3.1253,2.97648 1.3746,0.69657 2.5887,1.68252 3.5622,2.89277 C 29.888,24.082 30.5988,25.489 31,27 h -3.9026 c -0.3601,-1.3124 -1.092,-2.4872 -2.104,-3.3772 -1.012,-0.88996 -2.2591,-1.45553 -3.5849,-1.6258 V 27 Z"
     fill="#a2c7e0"
     id="path1" />
</svg>
