<?xml version="1.0" encoding="UTF-8" standalone="no"?>
<svg
   width="40"
   height="40"
   viewBox="0 0 40 40"
   fill="none"
   version="1.1"
   id="svg1"
   sodipodi:docname="youtube.svg"
   inkscape:version="1.3.2 (091e20ef0f, 2023-11-25)"
   xmlns:inkscape="http://www.inkscape.org/namespaces/inkscape"
   xmlns:sodipodi="http://sodipodi.sourceforge.net/DTD/sodipodi-0.dtd"
   xmlns="http://www.w3.org/2000/svg"
   xmlns:svg="http://www.w3.org/2000/svg">
  <defs
     id="defs1" />
  <sodipodi:namedview
     id="namedview1"
     pagecolor="#ffffff"
     bordercolor="#000000"
     borderopacity="0.25"
     inkscape:showpageshadow="2"
     inkscape:pageopacity="0.0"
     inkscape:pagecheckerboard="0"
     inkscape:deskcolor="#d1d1d1"
     inkscape:zoom="9.6590909"
     inkscape:cx="8.5929412"
     inkscape:cy="20.136471"
     inkscape:window-width="1920"
     inkscape:window-height="1003"
     inkscape:window-x="0"
     inkscape:window-y="0"
     inkscape:window-maximized="1"
     inkscape:current-layer="svg1" />
  <path
     fill-rule="evenodd"
     clip-rule="evenodd"
     d="m 11.262505,27.056809 c -0.39226,-0.116 -0.75017,-0.3225 -1.04353,-0.6019 -0.2933612,-0.2795 -0.5135572,-0.6237 -0.6420132,-1.0037 -0.734026,-1.9638 -0.951516,-10.16427 0.4621632,-11.78313 0.4705,-0.52662 1.13478,-0.850852 1.84866,-0.902311 3.79247,-0.398079 15.50973,-0.345002 16.85543,0.132694 0.3785,0.119867 0.7243,0.321807 1.0115,0.590667 0.2872,0.26887 0.5083,0.59769 0.6468,0.96184 0.802,2.03021 0.8292,9.40794 -0.1087,11.35854 -0.2488,0.5078 -0.6653,0.919 -1.1826,1.1677 -1.4137,0.69 -15.97187,0.6767 -17.84771,0.0796 z m 6.02173,-3.8481 6.79658,-3.45001 -6.79658,-3.47656 z"
     fill="#a2c7e0"
     id="path1" />
</svg>
